<svg width="640" height="360" viewBox="0 0 640 360" fill="none" xmlns="http://www.w3.org/2000/svg">
<rect width="640" height="360" rx="24" fill="url(#g)"/>
<defs>
<linearGradient id="g" x1="0" y1="0" x2="640" y2="360" gradientUnits="userSpaceOnUse">
<stop stop-color="#4f46e5"/>
<stop offset="1" stop-color="#9333ea"/>
</linearGradient>
</defs>
<g stroke="white" stroke-width="2" stroke-linecap="round" stroke-linejoin="round" opacity="0.85">
  <rect x="60" y="40" width="220" height="130" rx="8" fill="rgba(255,255,255,0.06)"/>
  <rect x="80" y="60" width="60" height="12" rx="3"/>
  <rect x="80" y="80" width="140" height="8" rx="3"/>
  <rect x="80" y="96" width="120" height="8" rx="3"/>
  <rect x="80" y="112" width="100" height="8" rx="3"/>
  <circle cx="255" cy="155" r="12" fill="#6366f1"/>
  <path d="M248 152l7 7 14-14"/>
  
  <rect x="360" y="32" width="220" height="130" rx="8" fill="rgba(255,255,255,0.06)"/>
  <rect x="380" y="52" width="140" height="10" rx="3"/>
  <rect x="380" y="70" width="100" height="8" rx="3"/>
  <rect x="380" y="86" width="120" height="8" rx="3"/>
  <rect x="380" y="102" width="60" height="8" rx="3"/>
  <circle cx="565" cy="148" r="10" fill="#818cf8"/>

  <rect x="120" y="200" width="180" height="120" rx="8" fill="rgba(255,255,255,0.06)"/>
  <rect x="140" y="220" width="80" height="12" rx="3"/>
  <rect x="140" y="240" width="120" height="8" rx="3"/>
  <rect x="140" y="256" width="92" height="8" rx="3"/>
  <rect x="140" y="272" width="110" height="8" rx="3"/>
  <circle cx="285" cy="310" r="10" fill="#6366f1"/>

  <!-- Football field stylized overlay -->
  <rect x="350" y="190" width="230" height="140" rx="14" fill="rgba(255,255,255,0.08)"/>
  <rect x="350" y="190" width="230" height="140" rx="14"/>
  <line x1="465" y1="190" x2="465" y2="330"/>
  <circle cx="465" cy="260" r="24"/>
  <circle cx="465" cy="260" r="4" fill="white"/>
  <rect x="350" y="228" width="26" height="64" rx="4"/>
  <rect x="554" y="228" width="26" height="64" rx="4"/>
  <!-- little dev people as dots -->
  <circle cx="400" cy="215" r="5" fill="#10b981"/>
  <circle cx="530" cy="305" r="5" fill="#f59e0b"/>
  <circle cx="430" cy="300" r="5" fill="#ef4444"/>
  <circle cx="500" cy="230" r="5" fill="#3b82f6"/>
  <!-- laptop football blend icon -->
  <path d="M420 340h90" stroke-width="4"/>
</g>
<text x="50%" y="50%" text-anchor="middle" fill="white" font-size="42" font-family="'Segoe UI',Arial,sans-serif" dy="-10">Fulbito Devs</text>
<text x="50%" y="50%" text-anchor="middle" fill="white" font-size="14" font-family="'Segoe UI',Arial,sans-serif" dy="22" opacity="0.85">Código + Fútbol Amateur</text>
</svg>