<?xml version="1.0" encoding="UTF-8"?>
<svg xmlns="http://www.w3.org/2000/svg" viewBox="0 0 64 64" width="64" height="64">
  <!-- Simple custom favicon themed for FulbITo (soccer field + ball) -->
  <defs>
    <linearGradient id="g" x1="0" x2="0" y1="0" y2="1">
      <stop offset="0%" stop-color="#16a34a"/>
      <stop offset="100%" stop-color="#065f46"/>
    </linearGradient>
  </defs>
  <!-- Field background -->
  <rect x="2" y="2" width="60" height="60" rx="12" ry="12" fill="url(#g)" stroke="#ffffff" stroke-width="2" />
  <!-- Mid line -->
  <line x1="32" y1="6" x2="32" y2="58" stroke="#ffffff" stroke-width="2.2" stroke-linecap="round" opacity="0.9" />
  <!-- Center circle -->
  <circle cx="32" cy="32" r="10" fill="none" stroke="#ffffff" stroke-width="2" opacity="0.9" />
  <!-- Ball (stylized) -->
  <circle cx="32" cy="32" r="6.2" fill="#ffffff" stroke="#0f172a" stroke-width="1.4" />
  <path d="M32 26.2 34.8 29 33.6 33.4 30.4 33.4 29.2 29z" fill="#0f172a" />
  <path d="M32 38.2c2.7 0 5-1.6 6-3.9l-2.4-1.8" stroke="#0f172a" stroke-width="1" fill="none" stroke-linecap="round" />
  <path d="M26 34.3c1 2.3 3.3 3.9 6 3.9" stroke="#0f172a" stroke-width="1" fill="none" stroke-linecap="round" />
  <!-- Subtle letter F (brand hint) -->
  <path d="M18 20h10v4H22v4h6v4h-6v8h-4z" fill="#ffffff" opacity="0.18" />
</svg>
